<svg xmlns="http://www.w3.org/2000/svg" viewBox="0 0 100 100">
  <rect width="100" height="100" rx="20" fill="#4f46e5"/>
  <path d="M70,30 L80,30 C85,30 90,35 90,40 L90,80 C90,85 85,90 80,90 L20,90 C15,90 10,85 10,80 L10,40 C10,35 15,30 20,30 L30,30 L30,20 C30,15 35,10 40,10 C45,10 50,15 50,20 L50,30 L70,30 Z" fill="#ffffff" opacity="0.2"/>
  <rect x="20" y="40" width="60" height="40" rx="5" fill="#ffffff"/>
  <rect x="25" y="45" width="10" height="10" rx="2" fill="#e5e7eb"/>
  <rect x="40" y="45" width="10" height="10" rx="2" fill="#e5e7eb"/>
  <rect x="55" y="45" width="10" height="10" rx="2" fill="#e5e7eb"/>
  <rect x="25" y="60" width="10" height="10" rx="2" fill="#e5e7eb"/>
  <rect x="40" y="60" width="10" height="10" rx="2" fill="#4f46e5"/>
  <rect x="55" y="60" width="10" height="10" rx="2" fill="#e5e7eb"/>
  <path d="M30 20 L30 35 M70 20 L70 35" stroke="#ffffff" stroke-width="8" stroke-linecap="round"/>
</svg>
